<svg xmlns="http://www.w3.org/2000/svg" viewBox="0 0 1600 1000" role="img" aria-labelledby="title desc">
<title id="title">Ilustrație sală principală — Stejarii Country Club</title><desc id="desc">Imagine originală generată pentru demonstrația EventHub.</desc>
<defs><linearGradient id="bg40" x1="0" y1="0" x2="1" y2="1"><stop stop-color="#eee1cf"/><stop offset="1" stop-color="#aa865e" stop-opacity=".58"/></linearGradient><pattern id="p40" width="52" height="52" patternUnits="userSpaceOnUse"><circle cx="5" cy="5" r="2" fill="#80303a" opacity=".12"/></pattern></defs>
<rect width="1600" height="1000" fill="url(#bg40)"/><rect width="1600" height="1000" fill="url(#p40)"/>
<path d="M0 170Q400 70 800 170T1600 160V0H0Z" fill="#80303a" opacity=".9"/>

    <path d="M170 720V300 Q300 120 430 300V720M1170 720V300Q1300 120 1430 300V720" fill="none" stroke="#aa865e" stroke-width="28"/>
    <path d="M500 720V260Q800 40 1100 260V720" fill="#eee1cf" stroke="#aa865e" stroke-width="24"/>
    <g fill="#80303a" opacity=".85"><circle cx="800" cy="245" r="70"/><circle cx="800" cy="245" r="38" fill="#aa865e"/></g>
    <g stroke="#aa865e" stroke-width="10"><path d="M570 500h460M620 390h360"/></g>
<rect x="0" y="840" width="1600" height="160" fill="#26352d" opacity=".92"/>
<circle cx="120" cy="920" r="42" fill="#80303a"/><path d="M99 920h42M120 899v42" stroke="#eee1cf" stroke-width="7"/>
</svg>