<svg xmlns="http://www.w3.org/2000/svg" viewBox="0 0 1600 1000" role="img" aria-labelledby="title desc">
<title id="title">Ilustrație scenă pentru eveniment — Radisson Blu Hotel Bucharest</title><desc id="desc">Imagine originală generată pentru demonstrația EventHub.</desc>
<defs><linearGradient id="bg32" x1="0" y1="0" x2="1" y2="1"><stop stop-color="#efe0cb"/><stop offset="1" stop-color="#b88652" stop-opacity=".58"/></linearGradient><pattern id="p32" width="52" height="52" patternUnits="userSpaceOnUse"><circle cx="5" cy="5" r="2" fill="#6f1d2d" opacity=".12"/></pattern></defs>
<rect width="1600" height="1000" fill="url(#bg32)"/><rect width="1600" height="1000" fill="url(#p32)"/>
<path d="M0 170Q400 110 800 170T1600 160V0H0Z" fill="#6f1d2d" opacity=".9"/>

    <rect x="265" y="280" width="1070" height="500" rx="34" fill="#282326" opacity=".92"/>
    <path d="M300 750L520 330M1300 750L1080 330" stroke="#6f1d2d" stroke-width="90" opacity=".8"/>
    <circle cx="800" cy="470" r="145" fill="none" stroke="#b88652" stroke-width="24"/>
    <path d="M660 700h280" stroke="#b88652" stroke-width="24"/><g fill="#efe0cb" opacity=".8"><circle cx="500" cy="680" r="28"/><circle cx="1100" cy="680" r="28"/></g>
<rect x="0" y="840" width="1600" height="160" fill="#282326" opacity=".92"/>
<circle cx="120" cy="920" r="42" fill="#6f1d2d"/><path d="M99 920h42M120 899v42" stroke="#efe0cb" stroke-width="7"/>
</svg>